<svg xmlns="http://www.w3.org/2000/svg" viewBox="0 0 512 720" role="img" aria-labelledby="title">
	<title>Waxity Icon</title>
	<path d="M256 20 C330 150 430 260 460 360 C500 500 410 660 256 700 C102 660 12 500 52 360 C82 260 182 150 256 20 Z" fill="#000000" stroke="#f5f5f5" stroke-width="14"/>
	<polygon points="256,45 390,300 122,300" fill="#ef0014"/>
	<path d="M120 300V490C120 550 160 588 216 588C249 588 277 574 296 548C315 574 343 588 376 588C432 588 472 550 472 490V300H406V486C406 512 392 528 372 528C352 528 338 512 338 486V300H254V486C254 512 240 528 220 528C200 528 186 512 186 486V300H120Z" fill="#f5f5f5"/>
</svg>
